<?xml version="1.0" encoding="UTF-8" standalone="no"?>
<!-- Svg Vector Icons : http://www.onlinewebfonts.com/icon -->

<svg
   xmlns:dc="http://purl.org/dc/elements/1.1/"
   xmlns:cc="http://creativecommons.org/ns#"
   xmlns:rdf="http://www.w3.org/1999/02/22-rdf-syntax-ns#"
   xmlns:svg="http://www.w3.org/2000/svg"
   xmlns="http://www.w3.org/2000/svg"
   xmlns:sodipodi="http://sodipodi.sourceforge.net/DTD/sodipodi-0.dtd"
   xmlns:inkscape="http://www.inkscape.org/namespaces/inkscape"
   version="1.1"
   x="0px"
   y="0px"
   viewBox="0 0 1000 1000"
   enable-background="new 0 0 1000 1000"
   xml:space="preserve"
   id="svg16"
   sodipodi:docname="eyedropper.svg"
   inkscape:version="0.92.3 (2405546, 2018-03-11)"><defs
   id="defs20" /><sodipodi:namedview
   pagecolor="#ffffff"
   bordercolor="#666666"
   borderopacity="1"
   objecttolerance="10"
   gridtolerance="10"
   guidetolerance="10"
   inkscape:pageopacity="0"
   inkscape:pageshadow="2"
   inkscape:window-width="1920"
   inkscape:window-height="1017"
   id="namedview18"
   showgrid="false"
   inkscape:zoom="0.236"
   inkscape:cx="631.35593"
   inkscape:cy="500"
   inkscape:window-x="-8"
   inkscape:window-y="-8"
   inkscape:window-maximized="1"
   inkscape:current-layer="svg16" />
<metadata
   id="metadata2"> Svg Vector Icons : http://www.onlinewebfonts.com/icon <rdf:RDF><cc:Work
     rdf:about=""><dc:format>image/svg+xml</dc:format><dc:type
       rdf:resource="http://purl.org/dc/dcmitype/StillImage" /></cc:Work></rdf:RDF></metadata>
<g
   id="g14"
   style="fill:#bbb"><g
     transform="translate(0.000000,512.000000) scale(0.100000,-0.100000)"
     id="g12"
     style="fill:#bbb"><path
       d="M8283.6,5008c-256.8-36.4-544.2-157.1-714.8-302.8C7472.9,4622.8,5501,2574.3,5501,2557c0-5.8,435-446.5,965.8-977.3l965.8-965.8l1011.8,971.6c557.7,534.7,1063.6,1029.1,1124.9,1100c124.6,143.7,245.3,371.8,295.1,559.6c51.7,193.5,46,561.5-11.5,747.4c-185.9,603.7-668.8,985-1295.4,1023.3C8473.3,5019.5,8350.6,5017.6,8283.6,5008z"
       id="path4"
       style="fill:#bbb" /><path
       d="M4251.6,2120.1c-461.8-463.8-492.5-505.9-465.7-613.2c17.2-74.7,2506.6-2566,2589-2592.8c42.2-13.4,76.7-13.4,115,0c30.7,11.5,256.8,220.4,502.1,465.7c471.4,471.4,494.4,504,446.5,622.8c-13.4,30.7-590.2,620.9-1282,1312.7l-1260.9,1259h-93.9h-95.8L4251.6,2120.1z"
       id="path6"
       style="fill:#bbb" /><path
       d="M2442.6-514.9C982.3-1977,1018.7-1936.8,949.8-2199.3c-17.2-59.4-28.7-193.6-28.7-314.3c0-346.9-5.8-360.3-440.8-1015.7c-398.6-597.9-412-626.6-356.4-733.9c40.2-76.7,454.2-477.2,519.3-502.1c30.7-11.5,76.7-15.3,101.6-9.6c24.9,5.8,291.3,176.3,594.1,377.5c302.8,203.1,594.1,383.3,645.8,402.4c67.1,23,157.1,32.6,297,34.5c235.7,0,394.8,34.5,561.5,116.9c101.6,51.7,251,191.6,1086.6,1021.4c532.7,528.9,1155.5,1144.1,1383.6,1366.3l413.9,402.4l-139.9,139.9c-105.4,103.5-147.6,134.1-168.6,122.6c-42.2-23-1479.4-1433.4-2159.7-2117.5c-659.2-661.1-601.7-626.6-1034.8-649.6c-390.9-21.1-413.9-30.7-1054-458L739-4305.4l-84.3,86.2l-86.2,84.3l299,448.4c435,651.6,433.1,649.6,454.2,1086.6c11.5,245.3,21.1,314.3,57.5,392.9c34.5,78.6,274,327.7,1381.7,1437.2L4102.1,571.7l-139.9,139.9c-76.7,74.7-143.7,138-147.6,138C3808.9,849.6,3191.9,234.4,2442.6-514.9z"
       id="path8"
       style="fill:#bbb" /><path
       d="M3057.7-930.7C2960-992,1927.1-2047.9,1875.3-2139.9c-109.2-189.7-136.1-312.4-138-609.4l-1.9-276l63.2-55.6c72.8-65.2,178.2-74.7,251-24.9c72.8,51.7,97.7,141.8,97.7,360.3c0,346.8-11.5,329.6,634.3,979.2c302.8,306.6,561.5,580.6,573,611.3c28.7,78.6-7.7,176.3-84.3,224.2C3195.7-884.7,3130.5-884.7,3057.7-930.7z"
       id="path10"
       style="fill:#bbb" /></g></g>
</svg>