<?xml version="1.0" encoding="UTF-8" standalone="no"?>
<svg
   xmlns:dc="http://purl.org/dc/elements/1.1/"
   xmlns:cc="http://creativecommons.org/ns#"
   xmlns:rdf="http://www.w3.org/1999/02/22-rdf-syntax-ns#"
   xmlns:svg="http://www.w3.org/2000/svg"
   xmlns="http://www.w3.org/2000/svg"
   xmlns:sodipodi="http://sodipodi.sourceforge.net/DTD/sodipodi-0.dtd"
   xmlns:inkscape="http://www.inkscape.org/namespaces/inkscape"
   viewBox="0 0 512 512"
   version="1.1"
   id="svg4"
   sodipodi:docname="pencil-alt-plus.svg"
   inkscape:version="0.92.3 (2405546, 2018-03-11)">
  <metadata
     id="metadata10">
    <rdf:RDF>
      <cc:Work
         rdf:about="">
        <dc:format>image/svg+xml</dc:format>
        <dc:type
           rdf:resource="http://purl.org/dc/dcmitype/StillImage" />
      </cc:Work>
    </rdf:RDF>
  </metadata>
  <defs
     id="defs8" />
  <sodipodi:namedview
     pagecolor="#ffffff"
     bordercolor="#666666"
     borderopacity="1"
     objecttolerance="10"
     gridtolerance="10"
     guidetolerance="10"
     inkscape:pageopacity="0"
     inkscape:pageshadow="2"
     inkscape:window-width="1920"
     inkscape:window-height="1017"
     id="namedview6"
     showgrid="false"
     inkscape:zoom="0.65186406"
     inkscape:cx="134.26559"
     inkscape:cy="-34.933428"
     inkscape:window-x="1912"
     inkscape:window-y="-8"
     inkscape:window-maximized="1"
     inkscape:current-layer="svg4"
     showguides="false" />
  <!-- Font Awesome Free 5.15.2 by @fontawesome - https://fontawesome.com License - https://fontawesome.com/license/free (Icons: CC BY 4.0, Fonts: SIL OFL 1.1, Code: MIT License) -->
  <path
     d="M497.9 142.1l-46.1 46.1c-4.7 4.7-12.3 4.7-17 0l-111-111c-4.7-4.7-4.7-12.3 0-17l46.1-46.1c18.7-18.7 49.1-18.7 67.9 0l60.1 60.1c18.8 18.7 18.8 49.1 0 67.9zM284.2 99.8L21.6 362.4.4 483.9c-2.9 16.4 11.4 30.6 27.8 27.8l121.5-21.3 262.6-262.6c4.7-4.7 4.7-12.3 0-17l-111-111c-4.8-4.7-12.4-4.7-17.1 0zM124.1 339.9c-5.5-5.5-5.5-14.3 0-19.8l154-154c5.5-5.5 14.3-5.5 19.8 0s5.5 14.3 0 19.8l-154 154c-5.5 5.5-14.3 5.5-19.8 0zM88 424h48v36.3l-64.5 11.3-31.1-31.1L51.7 376H88v48z"
     id="path2"
     style="fill:#b0b0b0;fill-opacity:1" />
  <flowRoot
     xml:space="preserve"
     id="flowRoot12"
     style="font-style:normal;font-weight:normal;font-size:40px;line-height:1.25;font-family:sans-serif;letter-spacing:0px;word-spacing:0px;fill:#000000;fill-opacity:1;stroke:none"
     transform="matrix(6.0809702,0,0,5.7597654,-1696.3593,-1738.1652)"><flowRegion
       id="flowRegion14"><rect
         id="rect16"
         width="149.69492"
         height="143.18645"
         x="329.76273"
         y="353.62711" /></flowRegion><flowPara
       id="flowPara18" /></flowRoot>  <text
     xml:space="preserve"
     style="font-style:normal;font-weight:normal;font-size:40px;line-height:1.25;font-family:sans-serif;letter-spacing:0px;word-spacing:0px;fill:#000000;fill-opacity:1;stroke:none"
     x="344.39697"
     y="419.95627"
     id="text22"><tspan
       sodipodi:role="line"
       id="tspan20"
       x="344.39697"
       y="456.44949" /></text>
  <text
     xml:space="preserve"
     style="font-style:normal;font-weight:normal;font-size:40px;line-height:1.25;font-family:sans-serif;letter-spacing:0px;word-spacing:0px;fill:#000000;fill-opacity:1;stroke:none"
     x="363.57272"
     y="394.64423"
     id="text26"><tspan
       sodipodi:role="line"
       id="tspan24"
       x="363.57272"
       y="431.13745" /></text>
  <g
     aria-label="+"
     transform="matrix(11.923509,0,0,11.923509,-4758.4042,-4482.225)"
     style="font-style:normal;font-variant:normal;font-weight:normal;font-stretch:normal;font-size:40px;line-height:1.25;font-family:'OCR A Std';-inkscape-font-specification:'OCR A Std, Normal';font-variant-ligatures:normal;font-variant-caps:normal;font-variant-numeric:normal;font-feature-settings:normal;text-align:center;letter-spacing:0px;word-spacing:0px;writing-mode:lr-tb;text-anchor:middle;fill:#b0b0b0;fill-opacity:1;stroke:none;stroke-opacity:0.99029122"
     id="flowRoot28">
    <path
       d="m 429.9423,406.73752 h -5.88 c -1.04,0 -2,0.56 -2,2 0,1.44 0.96,2 2,2 h 5.88 v 5.88 c 0,1.28 0.56,2 2,2 1.44,0 2,-0.72 2,-2 v -5.88 h 5.88 c 1.04,0 2,-0.56 2,-2 0,-1.44 -0.96,-2 -2,-2 h -5.88 v -5.96 c 0,-1.28 -0.56,-2 -2,-2 -1.44,0 -2,0.72 -2,2 z"
       style="fill:#b0b0b0;fill-opacity:1;stroke:none;stroke-opacity:0.99029122"
       id="path40"
       inkscape:connector-curvature="0" />
  </g>
</svg>
